<?xml version="1.0" encoding="utf-8"?>
<!-- Generator: Adobe Illustrator 15.0.0, SVG Export Plug-In  -->
<!DOCTYPE svg PUBLIC "-//W3C//DTD SVG 1.1//EN" "http://www.w3.org/Graphics/SVG/1.1/DTD/svg11.dtd" [
	<!ENTITY ns_flows "http://ns.adobe.com/Flows/1.0/">
]>
<svg version="1.1"
	 xmlns="http://www.w3.org/2000/svg" xmlns:xlink="http://www.w3.org/1999/xlink" xmlns:a="http://ns.adobe.com/AdobeSVGViewerExtensions/3.0/"
	 x="0px" y="0px" width="126px" height="125px" viewBox="-1.167 -0.333 126 125" enable-background="new -1.167 -0.333 126 125"
	 xml:space="preserve">
<defs>
</defs>
<path fill="#6394AA" d="M95.758,35.725l0.43-0.425c1.19-1.175,1.201-3.089,0.028-4.277L84.736,19.399
	c-1.174-1.189-3.088-1.201-4.277-0.027l-0.431,0.425l-7.228-7.317L49.986,35.011l30.608,30.993l22.814-22.529L95.758,35.725z"/>
<path fill="#6394AA" d="M46.569,34.134c-1.188,1.173-3.104,1.161-4.277-0.027l-3.826-3.874c-1.174-1.188-1.162-3.104,0.026-4.278
	L63.891,0.873c1.188-1.175,3.104-1.162,4.277,0.026l3.826,3.875c1.174,1.188,1.162,3.104-0.026,4.277L46.569,34.134z"/>
<path fill="#6394AA" d="M89.08,77.18c-1.188,1.175-3.104,1.162-4.277-0.025l-3.825-3.875c-1.175-1.188-1.163-3.104,0.026-4.277
	l25.397-25.083c1.188-1.172,3.104-1.161,4.277,0.027l3.827,3.875c1.174,1.188,1.161,3.104-0.027,4.277L89.08,77.18z"/>
<path fill="#6394AA" d="M28.92,101.702l0.069,0.063l40.531-43.53L57.617,46.181L12.71,87.302l0.063,0.056L0.955,97.886
	c-1.263,1.247-1.274,3.281-0.028,4.545l11.639,11.785c1.247,1.261,3.282,1.274,4.545,0.028L28.92,101.702z"/>
<path fill="#6394AA" d="M81.493,93.177c-0.832,0.82-2.173,0.813-2.994-0.021l-7.228-7.316c-0.82-0.833-0.813-2.175,0.02-2.996l0,0
	c0.832-0.821,2.174-0.813,2.995,0.021l7.227,7.318C82.334,91.014,82.325,92.354,81.493,93.177L81.493,93.177z"/>
<path fill="#6394AA" d="M87.095,94.167c-1.154,0-2.096-1.159-2.103-2.313l-0.034-7.756c-0.005-1.154,0.927-1.931,2.08-1.931h0.057
	c1.153-1,2.092,0.642,2.097,1.796l0.037,8.012c0.006,1.153-0.924,2.191-2.078,2.191H87.095z"/>
<path fill="#6394AA" d="M92.466,93.177c0.832,0.82,2.174,0.813,2.995-0.021l7.227-7.316c0.821-0.833,0.813-2.175-0.019-2.996l0,0
	c-0.832-0.821-2.173-0.813-2.995,0.021l-7.227,7.318C91.625,91.014,91.634,92.354,92.466,93.177L92.466,93.177z"/>
<path fill="#6394AA" d="M112.833,108.333v-2.419c0-4.01-3.301-7.747-7.31-7.747H64.988c-4.009,0-6.155,3.737-6.155,7.747v2.419
	c0,0.629-1.017,0.834-0.867,1.834h54.578C112.695,109.167,112.833,108.962,112.833,108.333z"/>
<path fill="#6394AA" d="M123.833,120.433c0-4.008-3.412-7.266-7.419-7.266H52.888c-4.009,0-7.054,3.258-7.054,7.266v3.734h78
	V120.433z"/>
</svg>
