<?xml version="1.0" encoding="utf-8"?>
<!-- Generator: Adobe Illustrator 15.0.0, SVG Export Plug-In  -->
<!DOCTYPE svg PUBLIC "-//W3C//DTD SVG 1.1//EN" "http://www.w3.org/Graphics/SVG/1.1/DTD/svg11.dtd" [
	<!ENTITY ns_flows "http://ns.adobe.com/Flows/1.0/">
]>
<svg version="1.1"
	 xmlns="http://www.w3.org/2000/svg" xmlns:xlink="http://www.w3.org/1999/xlink" xmlns:a="http://ns.adobe.com/AdobeSVGViewerExtensions/3.0/"
	 x="0px" y="0px" width="190px" height="51px" viewBox="-0.525 -1.5 190 51" enable-background="new -0.525 -1.5 190 51"
	 xml:space="preserve">
<defs>
</defs>
<circle fill="none" stroke="#F7931A" stroke-width="3" stroke-miterlimit="10" cx="24.141" cy="24.142" r="22.641"/>
<path fill="#F7931A" d="M67.21,17.33c0,0.712-0.15,1.341-0.449,1.886c-0.299,0.546-0.702,0.995-1.208,1.348
	c-0.599,0.423-1.24,0.724-1.925,0.899c-0.685,0.177-1.568,0.265-2.651,0.265H56.41V7.398h4.224c1.134,0,1.984,0.033,2.551,0.101
	c0.566,0.067,1.11,0.226,1.63,0.477c0.57,0.276,0.987,0.637,1.251,1.082c0.264,0.446,0.396,0.971,0.396,1.574
	c0,0.673-0.198,1.276-0.594,1.809c-0.396,0.533-0.942,0.949-1.642,1.251v0.077c0.948,0.231,1.683,0.653,2.203,1.266
	C66.95,15.647,67.21,16.412,67.21,17.33z M64.258,10.901c0-0.347-0.064-0.646-0.192-0.9c-0.128-0.253-0.335-0.454-0.62-0.601
	c-0.342-0.173-0.724-0.279-1.145-0.318c-0.42-0.039-1.001-0.058-1.743-0.058h-2.032v4.196h2.406c0.663,0,1.151-0.03,1.465-0.091
	c0.313-0.061,0.638-0.188,0.973-0.38c0.321-0.186,0.549-0.43,0.685-0.731C64.191,11.716,64.258,11.344,64.258,10.901z
	 M65.007,17.407c0-0.539-0.086-0.983-0.257-1.333c-0.171-0.349-0.517-0.646-1.037-0.89c-0.335-0.16-0.701-0.263-1.096-0.308
	c-0.396-0.044-0.958-0.067-1.684-0.067h-2.406v5.293h1.722c0.927,0,1.657-0.038,2.192-0.116c0.534-0.077,1.005-0.24,1.412-0.49
	c0.399-0.25,0.691-0.534,0.876-0.852C64.914,18.326,65.007,17.914,65.007,17.407z"/>
<path fill="#F7931A" d="M75.077,21.728h-6.181v-1.462h2.032V8.861h-2.032V7.398h6.181v1.462h-2.032v11.405h2.032V21.728z"/>
<path fill="#F7931A" d="M81.429,21.728V9.092h-5.347V7.398h12.811v1.693h-5.347v12.636H81.429z"/>
<path fill="#F7931A" d="M96.147,21.988c-1.041,0-1.998-0.158-2.871-0.472c-0.873-0.314-1.627-0.783-2.261-1.406
	c-0.635-0.622-1.126-1.398-1.476-2.329c-0.349-0.93-0.524-1.998-0.524-3.205c0-1.199,0.169-2.245,0.508-3.138
	c0.338-0.891,0.832-1.667,1.48-2.329c0.635-0.641,1.387-1.13,2.256-1.467s1.843-0.505,2.919-0.505c0.535,0,1.035,0.035,1.502,0.105
	c0.467,0.071,0.9,0.161,1.299,0.27c0.342,0.097,0.693,0.217,1.053,0.361c0.36,0.145,0.714,0.304,1.064,0.477v2.3h-0.171
	c-0.185-0.154-0.424-0.34-0.716-0.558c-0.292-0.218-0.649-0.434-1.069-0.646c-0.406-0.198-0.849-0.361-1.326-0.49
	c-0.478-0.128-1.03-0.193-1.657-0.193c-0.678,0-1.319,0.125-1.925,0.375c-0.606,0.251-1.138,0.619-1.593,1.107
	c-0.45,0.488-0.799,1.101-1.048,1.838s-0.375,1.569-0.375,2.492c0,0.981,0.132,1.827,0.396,2.536
	c0.264,0.709,0.624,1.307,1.08,1.795c0.442,0.475,0.962,0.832,1.561,1.073c0.599,0.24,1.233,0.361,1.904,0.361
	c0.613,0,1.179-0.067,1.7-0.202s0.984-0.305,1.39-0.51c0.392-0.199,0.731-0.402,1.016-0.611c0.285-0.208,0.51-0.387,0.674-0.534
	h0.16v2.271c-0.35,0.147-0.679,0.289-0.989,0.424s-0.686,0.266-1.128,0.395c-0.464,0.135-0.893,0.236-1.289,0.308
	C97.296,21.952,96.782,21.988,96.147,21.988z"/>
<path fill="#F7931A" d="M114.537,9.043c0.605,0.629,1.076,1.409,1.412,2.34c0.334,0.93,0.502,1.991,0.502,3.185
	c0,1.161-0.164,2.21-0.492,3.146c-0.328,0.938-0.802,1.723-1.422,2.358c-0.649,0.667-1.406,1.16-2.272,1.477
	s-1.819,0.477-2.86,0.477c-1.077,0-2.046-0.164-2.909-0.491c-0.862-0.327-1.604-0.814-2.224-1.462
	c-0.613-0.636-1.084-1.418-1.412-2.348s-0.492-1.982-0.492-3.157c0-1.207,0.166-2.265,0.497-3.176
	c0.332-0.911,0.804-1.694,1.417-2.349c0.613-0.635,1.353-1.117,2.219-1.448s1.834-0.496,2.903-0.496c1.083,0,2.06,0.17,2.93,0.51
	C113.204,7.95,113.938,8.428,114.537,9.043z M114.248,14.568c0-0.949-0.114-1.79-0.342-2.522c-0.229-0.73-0.549-1.337-0.963-1.818
	c-0.42-0.494-0.928-0.865-1.523-1.112s-1.264-0.371-2.005-0.371c-0.77,0-1.442,0.12-2.016,0.361
	c-0.574,0.24-1.082,0.614-1.524,1.121c-0.42,0.488-0.743,1.1-0.967,1.838c-0.225,0.738-0.337,1.572-0.337,2.502
	c0,1.879,0.439,3.319,1.315,4.316c0.876,0.998,2.053,1.497,3.529,1.497s2.65-0.499,3.523-1.497
	C113.811,17.887,114.248,16.447,114.248,14.568z"/>
<path fill="#F7931A" d="M124.354,21.728h-6.181v-1.462h2.031V8.861h-2.031V7.398h6.181v1.462h-2.032v11.405h2.032V21.728z"/>
<path fill="#F7931A" d="M138.373,21.728h-2.374l-7.036-12.357v12.357h-1.979V7.398h3.005l6.405,11.346V7.398h1.978V21.728z"/>
<path fill="#F7931A" d="M61.204,46.024c-1.155,0-2.137-0.108-2.946-0.322c-0.809-0.214-1.57-0.48-2.283-0.794v-2.387h0.15
	c0.698,0.591,1.489,1.048,2.374,1.371c0.884,0.325,1.736,0.486,2.556,0.486c1.169,0,2.053-0.22,2.652-0.659
	c0.599-0.439,0.898-1.019,0.898-1.737c0-0.57-0.157-1.035-0.471-1.395s-0.813-0.625-1.497-0.799
	c-0.492-0.128-0.941-0.233-1.347-0.317s-0.916-0.196-1.529-0.337c-0.549-0.128-1.041-0.292-1.476-0.491
	c-0.435-0.199-0.82-0.459-1.155-0.78c-0.328-0.314-0.583-0.685-0.765-1.111c-0.182-0.427-0.272-0.919-0.272-1.477
	c0-1.162,0.502-2.135,1.507-2.921c1.005-0.786,2.289-1.18,3.85-1.18c0.891,0,1.734,0.081,2.529,0.241
	c0.794,0.16,1.531,0.388,2.208,0.684v2.28h-0.16c-0.506-0.417-1.155-0.781-1.947-1.093c-0.791-0.311-1.622-0.466-2.491-0.466
	c-0.983,0-1.778,0.208-2.385,0.621c-0.606,0.414-0.909,0.958-0.909,1.631c0,0.609,0.178,1.094,0.535,1.453s0.873,0.622,1.55,0.789
	c0.45,0.11,0.998,0.233,1.647,0.371c0.648,0.139,1.187,0.265,1.615,0.38c1.098,0.302,1.9,0.758,2.406,1.367
	c0.506,0.61,0.759,1.36,0.759,2.252c0,0.558-0.126,1.11-0.379,1.655c-0.253,0.546-0.608,1.007-1.064,1.386
	c-0.513,0.417-1.092,0.738-1.737,0.962C62.98,45.912,62.173,46.024,61.204,46.024z"/>
<path fill="#F7931A" d="M72.71,45.764V33.128h-5.347v-1.694h12.811v1.694h-5.347v12.636H72.71z"/>
<path fill="#F7931A" d="M78.848,45.764l5.368-14.33h2.609l5.368,14.33h-2.235l-1.443-4.003h-6.084l-1.444,4.003H78.848z
	 M87.927,40.134l-2.459-6.756l-2.448,6.756H87.927z"/>
<path fill="#F7931A" d="M106.271,45.764h-2.748l-5.047-5.697h-2.417v5.697h-2.117v-14.33h4.106c0.912,0,1.677,0.045,2.294,0.135
	c0.616,0.09,1.203,0.298,1.759,0.625c0.556,0.321,0.996,0.734,1.32,1.241c0.325,0.507,0.487,1.136,0.487,1.887
	c0,1.052-0.296,1.931-0.888,2.637s-1.397,1.229-2.417,1.569L106.271,45.764z M101.694,35.467c0-0.417-0.082-0.788-0.246-1.112
	s-0.417-0.589-0.759-0.794c-0.299-0.179-0.649-0.306-1.048-0.38c-0.399-0.074-0.895-0.11-1.486-0.11h-2.096v5.408h1.861
	c0.606,0,1.151-0.048,1.636-0.145c0.485-0.096,0.898-0.294,1.241-0.596c0.307-0.27,0.533-0.591,0.679-0.963
	S101.694,35.967,101.694,35.467z"/>
<path fill="#F7931A" d="M110.51,45.764V33.128h-5.347v-1.694h12.811v1.694h-5.347v12.636H110.51z"/>
<path fill="#F7931A" d="M124.919,46.063c-0.934,0-1.75-0.111-2.449-0.332c-0.699-0.222-1.294-0.55-1.786-0.987
	c-0.556-0.5-0.948-1.099-1.176-1.794c-0.228-0.696-0.342-1.554-0.342-2.574v-8.941h2.117v8.941c0,0.66,0.047,1.217,0.139,1.67
	c0.092,0.452,0.274,0.857,0.545,1.217c0.285,0.385,0.672,0.677,1.16,0.876c0.488,0.199,1.085,0.298,1.791,0.298
	c0.663,0,1.251-0.1,1.765-0.298c0.513-0.199,0.913-0.491,1.197-0.876c0.264-0.366,0.444-0.77,0.54-1.213
	c0.096-0.442,0.145-0.984,0.145-1.626v-8.989h2.117v8.941c0,0.994-0.112,1.848-0.337,2.56s-0.618,1.315-1.182,1.809
	c-0.506,0.443-1.096,0.773-1.77,0.992C126.721,45.953,125.896,46.063,124.919,46.063z"/>
<path fill="#F7931A" d="M143.662,35.755c0,0.623-0.123,1.21-0.369,1.766c-0.246,0.555-0.586,1.028-1.021,1.419
	c-0.549,0.488-1.194,0.857-1.936,1.107c-0.742,0.25-1.679,0.375-2.813,0.375h-1.796v5.341h-2.118v-14.33h4
	c0.941,0,1.743,0.071,2.406,0.211c0.663,0.142,1.248,0.369,1.753,0.684c0.592,0.365,1.055,0.829,1.391,1.391
	C143.495,34.281,143.662,34.96,143.662,35.755z M141.459,35.804c0-0.494-0.094-0.924-0.283-1.29
	c-0.189-0.365-0.477-0.664-0.861-0.895c-0.335-0.199-0.726-0.34-1.171-0.424c-0.445-0.083-1-0.125-1.663-0.125h-1.753v5.726h1.443
	c0.855,0,1.547-0.062,2.074-0.188c0.528-0.125,0.966-0.348,1.315-0.668c0.313-0.29,0.542-0.604,0.685-0.943
	C141.388,36.657,141.459,36.259,141.459,35.804z"/>
<path fill="#F7931A" d="M161.799,45.764h-9.229v-14.33h2.118V44.07h7.111V45.764z"/>
<path fill="#F7931A" d="M161.329,45.764l5.368-14.33h2.609l5.368,14.33h-2.235l-1.443-4.003h-6.085l-1.443,4.003H161.329z
	 M170.407,40.134l-2.459-6.756l-2.449,6.756H170.407z"/>
<path fill="#F7931A" d="M187.2,41.366c0,0.712-0.149,1.341-0.449,1.887c-0.299,0.545-0.702,0.995-1.208,1.347
	c-0.599,0.423-1.241,0.724-1.925,0.9c-0.685,0.176-1.568,0.264-2.652,0.264h-4.565v-14.33h4.224c1.133,0,1.983,0.034,2.55,0.101
	c0.567,0.067,1.11,0.227,1.631,0.476c0.57,0.276,0.987,0.637,1.251,1.083c0.264,0.446,0.396,0.97,0.396,1.573
	c0,0.674-0.198,1.276-0.594,1.809c-0.396,0.533-0.942,0.95-1.641,1.252v0.077c0.948,0.23,1.682,0.652,2.203,1.266
	C186.94,39.684,187.2,40.449,187.2,41.366z M184.249,34.938c0-0.347-0.064-0.647-0.192-0.9c-0.128-0.253-0.335-0.453-0.62-0.602
	c-0.342-0.173-0.723-0.279-1.144-0.317c-0.421-0.039-1.002-0.058-1.743-0.058h-2.032v4.196h2.406c0.663,0,1.151-0.031,1.465-0.092
	c0.313-0.061,0.638-0.188,0.973-0.38c0.321-0.186,0.549-0.43,0.685-0.731C184.181,35.752,184.249,35.38,184.249,34.938z
	 M184.998,41.443c0-0.539-0.085-0.983-0.256-1.333c-0.171-0.35-0.517-0.646-1.037-0.891c-0.335-0.16-0.701-0.263-1.096-0.308
	c-0.396-0.045-0.957-0.067-1.685-0.067h-2.406v5.293h1.722c0.927,0,1.657-0.039,2.192-0.115c0.535-0.077,1.005-0.241,1.411-0.491
	c0.399-0.25,0.691-0.534,0.877-0.852C184.905,42.362,184.998,41.95,184.998,41.443z"/>
<path fill="#F7931A" d="M26.577,24.903c-0.347-0.211-0.9-0.38-1.668-0.525l-1.748-0.326l-0.542,2.915
	c-0.065,0.406-0.098,0.66-0.091,0.728c0.017,0.099,0.058,0.173,0.125,0.218c0.071,0.047,0.265,0.11,0.594,0.163l0.98,0.189
	c0.578,0.103,1.058,0.142,1.456,0.105c0.396-0.036,0.757-0.199,1.085-0.485c0.324-0.289,0.529-0.662,0.621-1.134
	c0.069-0.397,0.043-0.75-0.091-1.063C27.159,25.377,26.922,25.113,26.577,24.903z"/>
<path fill="#F7931A" d="M27.387,19.549c-0.313-0.167-0.898-0.333-1.764-0.494l-1.479-0.275l-0.614,3.28l1.479,0.282
	c0.77,0.142,1.357,0.181,1.752,0.121c0.393-0.055,0.701-0.199,0.941-0.425c0.229-0.221,0.386-0.51,0.448-0.854
	c0.071-0.355,0.04-0.67-0.095-0.954C27.931,19.951,27.707,19.729,27.387,19.549z"/>
<path fill="#F7931A" d="M32.836,16.1L28.741,2.094L19.305,13.37L4.683,13.081l7.678,12.396L7.553,39.246l13.888-3.264l11.514,8.309
	l1.424-14.006l11.633-8.25L32.836,16.1z M31.509,21.382c-0.083,0.427-0.255,0.818-0.521,1.176c-0.263,0.347-0.603,0.639-1.021,0.869
	c-0.415,0.229-0.938,0.387-1.56,0.476c0.597,0.266,1.049,0.526,1.346,0.773c0.432,0.349,0.745,0.782,0.938,1.307
	c0.192,0.516,0.231,1.063,0.12,1.644c-0.134,0.691-0.474,1.289-1.013,1.782c-0.544,0.511-1.243,0.845-2.087,1.003
	c-0.313,0.053-0.667,0.087-1.059,0.092l-1.811-0.182l-0.564,2.871l-1.573-0.309l0.552-2.806l-0.392-0.069l-0.99-0.18l-0.535,2.717
	l-1.572-0.309l0.529-2.694l-3.192-0.579l0.347-1.798l0.533,0.097c0.356,0.068,0.6,0.084,0.738,0.038
	c0.139-0.035,0.24-0.104,0.313-0.199c0.076-0.1,0.15-0.341,0.221-0.716l1.401-7.246c0.079-0.381,0.101-0.634,0.07-0.75
	c-0.032-0.115-0.105-0.218-0.221-0.298c-0.111-0.088-0.346-0.167-0.702-0.219l-0.533-0.105l0.35-1.798l3.229,0.588l0.5-2.546
	l1.572,0.309l-0.495,2.519l0.959,0.17l0.717,0.131l0.489-2.486l1.572,0.309l-0.495,2.517l1.436,0.357
	c0.325,0.123,0.623,0.251,0.858,0.407c0.611,0.393,1.059,0.861,1.326,1.419C31.559,20.22,31.627,20.794,31.509,21.382z"/>
</svg>
