<?xml version="1.0" encoding="utf-8"?>
<!-- Generator: Adobe Illustrator 15.0.0, SVG Export Plug-In . SVG Version: 6.00 Build 0)  -->
<!DOCTYPE svg PUBLIC "-//W3C//DTD SVG 1.1//EN" "http://www.w3.org/Graphics/SVG/1.1/DTD/svg11.dtd">
<svg version="1.1" id="Layer_1" xmlns="http://www.w3.org/2000/svg" xmlns:xlink="http://www.w3.org/1999/xlink" x="0px" y="0px"
	 width="126px" height="125px" viewBox="0 0 126 125" enable-background="new 0 0 126 125" xml:space="preserve">
<path fill="#FFFFFF" d="M113.184,61.775c0,28.686-23.25,51.925-51.924,51.925c-28.676,0-51.928-23.239-51.928-51.925
	c0-28.674,23.252-51.924,51.928-51.924C89.934,9.852,113.184,33.102,113.184,61.775z"/>
<path fill="#F7941D" d="M61.242,0C27.42,0,0,27.646,0,61.772c0,34.117,27.42,61.791,61.242,61.791s61.27-27.674,61.27-61.791
	C122.512,27.646,95.064,0,61.242,0z M87.316,52.523c-0.334,1.762-1.006,3.355-2.055,4.828c-1.031,1.421-2.359,2.626-4.009,3.565
	c-1.621,0.934-3.666,1.588-6.112,1.951c2.338,1.089,4.114,2.154,5.276,3.167c1.699,1.43,2.929,3.214,3.674,5.354
	c0.771,2.121,0.908,4.369,0.474,6.744c-0.521,2.827-1.854,5.288-3.965,7.314c-2.144,2.084-4.875,3.455-8.187,4.109
	c-1.24,0.213-2.623,0.353-4.154,0.377l-1.784,9.488l-8.946-1.65l1.633-8.793c-0.215-0.076-0.436-0.088-0.641-0.125l-5.123-0.957
	l-1.619,8.769l-8.945-1.685l1.615-8.775l-13.627-2.591l1.352-7.366l2.09,0.393c1.395,0.287,2.352,0.349,2.895,0.164
	c0.547-0.152,0.941-0.428,1.227-0.818c0.305-0.418,0.6-1.4,0.869-2.942l5.482-29.715c0.322-1.56,0.41-2.594,0.297-3.072
	c-0.139-0.476-0.418-0.894-0.869-1.223c-0.434-0.359-1.352-0.68-2.764-0.893l-2.08-0.433l1.359-7.378l13.646,2.605l1.672-8.803
	l8.939,1.715l-1.629,8.744l5.75,1.093l1.625-8.773l8.955,1.7l-1.752,9.385c1.284,0.496,2.442,1.021,3.366,1.663
	c2.401,1.603,4.166,3.536,5.195,5.813C87.502,47.754,87.773,50.111,87.316,52.523z"/>
<path fill="#F7941D" d="M71.135,45.609c-1.23-0.662-3.508-1.319-6.918-1.957l-5.801-1.095L56.014,55.54l5.803,1.107
	c3.014,0.564,5.326,0.715,6.854,0.487c1.545-0.226,2.771-0.793,3.701-1.687c0.903-0.876,1.519-2.021,1.752-3.375
	c0.283-1.409,0.168-2.648-0.362-3.781C73.275,47.187,72.396,46.318,71.135,45.609z"/>
<path fill="#F7941D" d="M67.963,66.787c-1.359-0.838-3.541-1.51-6.539-2.072l-6.861-1.294l-2.121,11.532
	c-0.264,1.597-0.385,2.605-0.359,2.882c0.063,0.39,0.227,0.688,0.482,0.854c0.295,0.19,1.041,0.437,2.326,0.648l3.846,0.747
	c2.279,0.399,4.17,0.56,5.708,0.412c1.552-0.142,2.98-0.778,4.255-1.911c1.278-1.146,2.079-2.626,2.442-4.486
	c0.271-1.58,0.174-2.967-0.363-4.211C70.244,68.661,69.316,67.615,67.963,66.787z"/>
<circle fill="none" stroke="#FFFFFF" stroke-width="8" stroke-miterlimit="10" cx="61.565" cy="61.822" r="50.846"/>
</svg>
