<?xml version="1.0" encoding="utf-8"?>
<!-- Generator: Adobe Illustrator 15.0.0, SVG Export Plug-In  -->
<!DOCTYPE svg PUBLIC "-//W3C//DTD SVG 1.1//EN" "http://www.w3.org/Graphics/SVG/1.1/DTD/svg11.dtd" [
	<!ENTITY ns_flows "http://ns.adobe.com/Flows/1.0/">
]>
<svg version="1.1"
	 xmlns="http://www.w3.org/2000/svg" xmlns:xlink="http://www.w3.org/1999/xlink" xmlns:a="http://ns.adobe.com/AdobeSVGViewerExtensions/3.0/"
	 x="0px" y="0px" width="262px" height="258px" viewBox="-4.694 -4.599 262 258" enable-background="new -4.694 -4.599 262 258"
	 xml:space="preserve">
<defs>
</defs>
<path fill="none" stroke="#6394AA" stroke-width="9.1125" stroke-linecap="round" stroke-linejoin="round" stroke-miterlimit="10" d="
	M126.056,19.549c0,0,0-10.005,0-14.993"/>
<path fill="none" stroke="#6394AA" stroke-width="9.1125" stroke-linecap="round" stroke-linejoin="round" stroke-miterlimit="10" d="
	M126.056,113.813v111.375c0,10.249-8.309,18.558-18.559,18.558l0,0c-10.249,0-18.557-8.309-18.557-18.558v-7.098"/>
<path fill="none" stroke="#6394AA" stroke-width="9.1125" stroke-linecap="round" stroke-linejoin="round" stroke-miterlimit="10" d="
	M4.556,122.246c8.397-5.455,20.111-8.851,33.096-8.851c16.132,0,30.336,5.249,38.59,13.179c2.437,1.97,5.974,6.516,5.974,6.516
	c8.089-11.436,24.684-19.276,43.84-19.276c19.323,0,36.039,7.978,44.049,19.574c0,0,3.043-4.584,5.53-6.619
	c8.216-8.047,22.521-13.373,38.785-13.373c12.997,0,24.738,3.408,33.136,8.877c-9.422-56.681-62.458-102.723-121.5-102.723"/>
<path fill="none" stroke="#6394AA" stroke-width="9.1125" stroke-linecap="round" stroke-linejoin="round" stroke-miterlimit="10" d="
	M126.033,19.549C93.162,48.125,80.416,88.6,82.192,133.089"/>
<path fill="none" stroke="#6394AA" stroke-width="9.1125" stroke-linecap="round" stroke-linejoin="round" stroke-miterlimit="10" d="
	M160.727,69.635c7.27,19.441,10.092,40.933,9.193,63.454"/>
<path fill="none" stroke="#6394AA" stroke-width="9.1125" stroke-linecap="round" stroke-linejoin="round" stroke-miterlimit="10" d="
	M126.08,19.549c10.467,9.1,18.894,19.407,25.462,30.666"/>
<path fill="none" stroke="#6394AA" stroke-width="9.1125" stroke-linecap="round" stroke-linejoin="round" stroke-miterlimit="10" d="
	M4.556,122.272c9.422-56.681,62.458-102.723,121.5-102.723"/>
<path fill="none" stroke="#6394AA" stroke-width="9.1125" stroke-linecap="round" stroke-linejoin="round" stroke-miterlimit="10" d="
	M236.757,229.599l-35.466-61.43c-3.63-6.288-12.705-6.288-16.335,0l-35.467,61.43c-3.63,6.287,0.908,14.146,8.167,14.146h70.935
	C235.85,243.746,240.388,235.886,236.757,229.599z"/>
<line fill="none" stroke="#6394AA" stroke-width="9.1125" stroke-linecap="round" stroke-linejoin="round" stroke-miterlimit="10" x1="193.123" y1="192.754" x2="193.123" y2="209.807"/>
<line fill="none" stroke="#6394AA" stroke-width="9.1125" stroke-linecap="round" stroke-linejoin="round" stroke-miterlimit="10" x1="193.123" y1="224.074" x2="193.123" y2="224.515"/>
</svg>
