<?xml version="1.0" encoding="utf-8"?>
<!-- Generator: Adobe Illustrator 15.0.0, SVG Export Plug-In . SVG Version: 6.00 Build 0)  -->
<!DOCTYPE svg PUBLIC "-//W3C//DTD SVG 1.1//EN" "http://www.w3.org/Graphics/SVG/1.1/DTD/svg11.dtd">
<svg version="1.1" id="Layer_1" xmlns="http://www.w3.org/2000/svg" xmlns:xlink="http://www.w3.org/1999/xlink" x="0px" y="0px"
	 width="127px" height="127px" viewBox="0 0 127 127" enable-background="new 0 0 127 127" xml:space="preserve">
<path fill="#6394AA" d="M75.682,121.042c11.219-8,18.633-19.91,18.633-34.332c0-11.728-4.906-21.668-12.769-29.668H67.053v0.107
	c9,5.14,14.584,13.876,14.584,23.792c0,15.815-16.904,28.638-37.13,28.638c-0.994,0-0.454-0.042-3.454-0.103v11.564L75.682,121.042
	L75.682,121.042z"/>
<path fill="#6394AA" d="M104.053,123.452c0,1.43-1.16,2.59-2.593,2.59H24.646c-1.432,0-2.593-1.16-2.593-2.59v-7.82
	c0-1.43,1.161-2.59,2.593-2.59h76.814c1.433,0,2.593,1.16,2.593,2.59V123.452z"/>
<path fill="#6394AA" d="M103.635,10.157l-7.312-7.351c-1.009-1.017-2.647-1.02-3.663-0.009l-11.395,11.33l-1.459-1.47
	c-1.011-1.018-2.652-1.021-3.668-0.012L40.494,48.102c-1.016,1.009-1.02,2.649-0.01,3.663l1.462,1.472l-4.778,4.751
	c-1.016,1.009-1.02,2.651-0.008,3.666l7.308,7.348c1.01,1.016,2.65,1.02,3.667,0.012l4.778-4.752l1.093,1.103
	c1.012,1.016,2.652,1.021,3.668,0.011l9.697-9.644c1.986,1.118,4.281,1.759,6.729,1.759c7.586,0,13.737-6.15,13.737-13.733
	c0-2.421-0.628-4.692-1.728-6.664l7.209-7.172c1.016-1.007,1.021-2.648,0.01-3.663l-1.096-1.104l11.392-11.331
	C104.639,12.812,104.645,11.17,103.635,10.157z M80.58,43.755c0,3.435-2.784,6.221-6.219,6.221c-0.377,0-0.742-0.04-1.103-0.105
	c-2.909-0.519-5.118-3.056-5.118-6.115c0-3.437,2.784-6.222,6.219-6.222c3.07,0,5.615,2.229,6.121,5.153
	C80.541,43.035,80.58,43.39,80.58,43.755z"/>
<g>
	<g>
		<circle fill="none" stroke="#CE242B" stroke-width="6" stroke-miterlimit="10" cx="63.053" cy="63.053" r="60.129"/>
		<line fill="none" stroke="#CE242B" stroke-width="6" stroke-miterlimit="10" x1="19.687" y1="107.877" x2="103.137" y2="24.425"/>
	</g>
</g>
</svg>
