<?xml version="1.0" encoding="utf-8"?>
<!-- Generator: Adobe Illustrator 15.0.0, SVG Export Plug-In . SVG Version: 6.00 Build 0)  -->
<!DOCTYPE svg PUBLIC "-//W3C//DTD SVG 1.1//EN" "http://www.w3.org/Graphics/SVG/1.1/DTD/svg11.dtd">
<svg version="1.1" id="Layer_1" xmlns="http://www.w3.org/2000/svg" xmlns:xlink="http://www.w3.org/1999/xlink" x="0px" y="0px"
	 width="366px" height="138px" viewBox="0 0 366 138" enable-background="new 0 0 366 138" xml:space="preserve">
<path fill="#1A1A1A" d="M137,80.379c0,5.313-4.307,9.621-9.62,9.621H18.62C13.307,90,9,85.691,9,80.379V17.621
	C9,12.308,13.307,8,18.62,8h108.76c5.313,0,9.62,4.308,9.62,9.621V80.379z"/>
<path fill="#1A1A1A" d="M357,82.378c0,5.313-4.308,9.622-9.621,9.622H238.621c-5.313,0-9.621-4.309-9.621-9.622V19.622
	c0-5.314,4.309-9.622,9.621-9.622h108.758c5.313,0,9.621,4.308,9.621,9.622V82.378z"/>
<path fill="#6394AA" d="M146,26.485C146,11.858,134.14,0,119.511,0H26.489C11.86,0,0,11.858,0,26.485v49.029
	C0,90.143,11.86,102,26.489,102h93.021C134.14,102,146,90.143,146,75.516V26.485z M135,74.756C135,82.07,129.071,88,121.757,88
	H26.243C18.929,88,13,82.07,13,74.756V25.244C13,17.93,18.929,12,26.243,12h95.514C129.071,12,135,17.93,135,25.244V74.756z"/>
<polygon fill="none" points="58.041,132 86.66,132 72.353,106.764 "/>
<path fill="#6394AA" d="M72.353,106.764L86.66,132h12.179L77.174,93.539c-1.013-1.787-2.902-2.859-4.821-2.78
	c-1.918-0.079-3.813,1.062-4.824,2.845L45.862,132h12.179L72.353,106.764z"/>
<path fill="#6394AA" d="M111,132.301c0,2.596-2.104,4.699-4.7,4.699H39.7c-2.596,0-4.7-2.104-4.7-4.699v-0.602
	c0-2.596,2.104-4.699,4.7-4.699h66.6c2.596,0,4.7,2.104,4.7,4.699V132.301z"/>
<path fill="#6394AA" d="M365,26.485C365,11.858,353.14,0,338.51,0h-93.02C230.859,0,219,11.858,219,26.485v49.029
	C219,90.143,230.859,102,245.49,102h93.02C353.14,102,365,90.143,365,75.516V26.485z M354,74.756C354,82.07,348.071,88,340.757,88
	h-95.514C237.93,88,232,82.07,232,74.756V25.244C232,17.93,237.93,12,245.243,12h95.514C348.071,12,354,17.93,354,25.244V74.756z"/>
<polygon fill="none" points="277.384,132 306.001,132 291.695,106.764 "/>
<path fill="#6394AA" d="M291.695,106.764L306.001,132h12.181l-21.666-38.461c-1.011-1.787-2.902-2.859-4.82-2.78
	c-1.918-0.079-3.813,1.062-4.824,2.845L265.206,132h12.178L291.695,106.764z"/>
<path fill="#6394AA" d="M330,132.301c0,2.596-2.104,4.699-4.698,4.699h-66.604c-2.595,0-4.698-2.104-4.698-4.699v-0.602
	c0-2.596,2.104-4.699,4.698-4.699h66.604c2.596,0,4.698,2.104,4.698,4.699V132.301z"/>
<polygon fill="#6394AA" points="207.775,36.905 190.57,23.15 190.57,31.929 173.012,35.444 173.012,38.869 190.57,42.281 
	190.57,51.111 "/>
<polygon fill="#6394AA" points="169.145,33.787 151.946,47.993 169.145,61.749 169.145,52.97 186.702,49.458 186.702,46.03 
	169.145,42.616 "/>
<path fill="#FFFFFF" d="M310.909,51.584c0,10.865-8.808,19.668-19.669,19.668c-10.863,0-19.67-8.803-19.67-19.668
	c0-10.862,8.807-19.67,19.67-19.67C302.102,31.914,310.909,40.722,310.909,51.584z"/>
<path fill="#F7941D" d="M291.232,28.184c-12.813,0-23.198,10.473-23.198,23.399c0,12.924,10.386,23.405,23.198,23.405
	c12.812,0,23.209-10.481,23.209-23.405C314.441,38.656,304.043,28.184,291.232,28.184z M301.109,48.079
	c-0.125,0.668-0.379,1.271-0.777,1.828c-0.393,0.54-0.895,0.994-1.52,1.351c-0.612,0.354-1.391,0.603-2.315,0.739
	c0.887,0.412,1.56,0.816,2,1.2c0.644,0.543,1.108,1.218,1.392,2.029c0.291,0.803,0.346,1.654,0.18,2.553
	c-0.198,1.071-0.701,2.005-1.502,2.772c-0.811,0.788-1.849,1.309-3.101,1.557c-0.47,0.08-0.994,0.133-1.575,0.144l-0.676,3.594
	l-3.387-0.626l0.619-3.331c-0.082-0.028-0.166-0.032-0.244-0.046l-1.94-0.364l-0.614,3.323l-3.388-0.639l0.613-3.324l-5.163-0.98
	l0.512-2.792l0.792,0.148c0.529,0.109,0.892,0.132,1.097,0.063c0.207-0.058,0.357-0.16,0.465-0.311
	c0.115-0.159,0.227-0.531,0.328-1.114l2.078-11.257c0.123-0.591,0.155-0.982,0.112-1.163c-0.053-0.181-0.159-0.338-0.329-0.462
	c-0.164-0.136-0.512-0.26-1.047-0.34l-0.788-0.163l0.515-2.795l5.168,0.987l0.634-3.334l3.388,0.649l-0.617,3.312l2.178,0.415
	l0.615-3.324l3.394,0.645l-0.663,3.554c0.486,0.189,0.925,0.387,1.273,0.632c0.909,0.605,1.577,1.339,1.969,2.2
	C301.18,46.272,301.282,47.165,301.109,48.079z"/>
<path fill="#F7941D" d="M294.98,45.461c-0.467-0.253-1.33-0.501-2.621-0.742l-2.197-0.415l-0.91,4.918l2.199,0.421
	c1.142,0.213,2.02,0.269,2.595,0.184c0.587-0.085,1.05-0.3,1.403-0.639c0.342-0.333,0.574-0.767,0.662-1.278
	c0.106-0.534,0.064-1.005-0.137-1.434C295.791,46.059,295.458,45.729,294.98,45.461z"/>
<path fill="#F7941D" d="M293.779,53.48c-0.516-0.316-1.342-0.57-2.479-0.783l-2.599-0.49l-0.804,4.368
	c-0.1,0.604-0.146,0.987-0.137,1.092c0.024,0.148,0.086,0.262,0.184,0.323c0.111,0.073,0.395,0.166,0.882,0.246l1.456,0.284
	c0.863,0.151,1.58,0.212,2.162,0.155c0.589-0.053,1.129-0.294,1.613-0.724c0.482-0.435,0.785-0.994,0.924-1.701
	c0.103-0.598,0.065-1.121-0.139-1.595C294.643,54.192,294.292,53.795,293.779,53.48z"/>
<polygon fill="#39B54A" points="107.014,37.926 96.405,27.331 70.997,52.745 60.242,41.987 49.634,52.597 70.983,73.951 
	70.997,73.922 71.029,73.951 "/>
</svg>
