<svg version="1.1"
	 xmlns="http://www.w3.org/2000/svg" xmlns:xlink="http://www.w3.org/1999/xlink" xmlns:a="http://ns.adobe.com/AdobeSVGViewerExtensions/3.0/"
	 x="0px" y="0px" width="151px" height="37px" viewBox="0 0 151 37" enable-background="new 0 0 151 37" xml:space="preserve">
<defs>
</defs>
<path d="M18.1362305,12.1875L9.109375,7.0898438L6.0444336,8.90625v3.7421875l9.0683594,4.9296875v10.3222656l3.0234375,1.6416016
	l3.0224609-1.6416016V17.578125l9.0688477-4.9296875V8.90625l-3.0654297-1.8164063L18.1362305,12.1875z M18.1362305,5.0527344
	L27.2314453,0l9.0419922,5.4707031v10.7695313l-9.0693359,4.9296875v10.3203125l-9.0678711,4.9316406l-9.0683594-4.9316406
	V21.1699219L0,16.2402344V5.4707031L9.0400391,0L18.1362305,5.0527344z"/>
<path d="M50.4824219,5.3632813v17.3740234c0,3.7216797,1.0791016,5.4814453,4.4550781,5.4814453
	c4.1113281,0,4.9921875-1.8085938,4.9921875-5.4814453V5.3632813h3.2792969v18.9414063
	c0,3.375-2.3974609,6.9970703-8.0273438,6.9970703c-5.5292969,0-7.9785156-3.4746094-7.9785156-7.1923828V5.3632813H50.4824219z"/>
<path d="M80.0488281,23.9130859l-2.3984375,7.5859375l-3.2304688-1.1748047l8.0253906-24.9609375H86.65625l8.0253906,24.9609375
	l-3.2265625,1.1748047l-2.3496094-7.5859375H80.0488281z M84.5507813,9.1816406l-3.6220703,11.7958984h7.2451172
	L84.5507813,9.1816406z"/>
<path d="M108.5839844,22.7861328c0.6386719,3.1318359,2.1533203,5.4326172,5.5810547,5.4326172
	c2.6923828,0,4.7958984-1.4658203,4.7958984-4.3056641c0-3.1328125-2.6435547-3.9150391-5.1376953-4.9453125
	c-3.7207031-1.5654297-7.2460938-2.5439453-7.2460938-7.3408203c0-4.3046875,3.4765625-6.703125,7.4892578-6.703125
	c4.2597656,0,6.7548828,2.4453125,7.7822266,6.4111328l-3.1318359,0.9267578
	c-0.5859375-2.4941406-1.9121094-4.2578125-4.6962891-4.2578125c-2.1083984,0-4.1630859,1.0800781-4.1630859,3.3808594
	c0,2.3984375,1.46875,3.0830078,3.4267578,3.9628906l5.4326172,2.3994141
	c2.3007813,1.2695313,3.5244141,3.3242188,3.5244141,5.96875c0,4.8476563-3.3769531,7.5859375-8.0761719,7.5859375
	c-4.7460938,0-7.7353516-3.0332031-8.515625-7.5859375L108.5839844,22.7861328z"/>
<path d="M138.5878906,5.3632813v17.3740234c0,3.7216797,1.078125,5.4814453,4.4589844,5.4814453
	c4.109375,0,4.9902344-1.8085938,4.9902344-5.4814453V5.3632813h3.2792969v18.9414063
	c0,3.375-2.3994141,6.9970703-8.0283203,6.9970703c-5.53125,0-7.9794922-3.4746094-7.9794922-7.1923828V5.3632813H138.5878906z"/>
</svg>
