<?xml version="1.0" encoding="utf-8"?>
<!-- Generator: Adobe Illustrator 15.0.0, SVG Export Plug-In  -->
<!DOCTYPE svg PUBLIC "-//W3C//DTD SVG 1.1//EN" "http://www.w3.org/Graphics/SVG/1.1/DTD/svg11.dtd" [
	<!ENTITY ns_flows "http://ns.adobe.com/Flows/1.0/">
]>
<svg version="1.1"
	 xmlns="http://www.w3.org/2000/svg" xmlns:xlink="http://www.w3.org/1999/xlink" xmlns:a="http://ns.adobe.com/AdobeSVGViewerExtensions/3.0/"
	 x="0px" y="0px" width="127px" height="127px" viewBox="-18.008 -2.534 127 127" enable-background="new -18.008 -2.534 127 127"
	 xml:space="preserve">
<defs>
</defs>
<path fill="#6394AA" d="M89.309,10.027c-1.104-1.113-2.442-1.061-4.016-1.061H70.419c-0.684-2-1.626-3.341-2.825-4.554
	C64.856,1.676,61.558,0,57.689,0c-3.864,0-7.167,1.828-9.902,4.566c-1.199,1.212-2.135,2.4-2.809,4.4H5.69
	c-1.571,0-2.911-0.052-4.014,1.061C0.559,11.134,0,12.166,0,13.74c0,1.57,0.559,3.175,1.677,4.281
	c1.103,1.119,2.442,1.945,4.014,1.945h39.035c0.685,0,1.706,2.707,3.062,4.062c2.735,2.735,6.038,3.894,9.902,3.894
	c3.868,0,7.167-1.051,9.904-3.789c1.357-1.354,2.377-4.167,3.062-4.167h14.638c1.573,0,2.911-0.98,4.016-2.1
	c1.116-1.1,1.675-2.342,1.675-3.916C90.983,12.377,90.425,11.134,89.309,10.027z M62.086,18.637
	c-0.183,0.169-0.361,0.33-0.544,0.486c-1.175,0.96-2.548,1.438-4.121,1.438c-1.571,0-2.949-0.479-4.124-1.438
	c-0.181-0.156-0.358-0.317-0.541-0.486c-1.283-1.284-1.926-2.839-1.926-4.664c0-1.813,0.643-3.368,1.926-4.663
	c0.732-0.733,1.549-1.255,2.449-1.567c0.685-0.239,1.424-0.36,2.216-0.36c0.779,0,1.519,0.121,2.216,0.36
	c0.897,0.313,1.714,0.834,2.449,1.567c1.283,1.295,1.926,2.851,1.926,4.663C64.012,15.798,63.369,17.353,62.086,18.637z"/>
<path fill-rule="evenodd" clip-rule="evenodd" fill="#6394AA" d="M51.497,81.8c0.156,0.313,0.35,0.624,0.576,0.937v8.732
	c-0.204-0.081-0.396-0.174-0.576-0.27c-1.334-0.659-2.57-1.56-3.71-2.701c-0.203-0.205-0.407-0.418-0.612-0.648
	c-0.911-1.021-1.644-2.112-2.196-3.275H5.69c-1.571,0-2.911-0.56-4.014-1.675C0.559,81.795,0,80.455,0,78.884
	c0-1.573,0.559-2.919,1.677-4.033c1.103-1.105,2.442-1.658,4.014-1.658h39.035c0.685-1.631,1.706-3.131,3.062-4.501
	c2.735-2.738,6.038-4.105,9.902-4.105c3.868,0,7.167,1.367,9.904,4.105c1.357,1.37,2.377,2.87,3.062,4.501h14.638
	c1.573,0,2.911,0.553,4.016,1.658c1.116,1.114,1.675,2.46,1.675,4.033c0,1.571-0.559,2.911-1.675,4.016
	c-1.104,1.115-2.442,1.675-4.016,1.675H70.419c-0.673,1.402-1.602,2.713-2.79,3.924c-0.011,0-0.024,0-0.035,0
	c-1.463,1.476-3.099,2.557-4.898,3.241v-8.895c0.878-1.139,1.316-2.467,1.316-3.979c0-1.813-0.643-3.369-1.926-4.664
	c-0.398-0.397-0.825-0.733-1.28-1.01c-0.995-0.611-2.126-0.918-3.385-0.918s-2.39,0.307-3.385,0.918
	c-0.455,0.276-0.885,0.612-1.28,1.01c-1.283,1.295-1.926,2.851-1.926,4.664C50.83,79.934,51.053,80.913,51.497,81.8z"/>
<path fill="#6394AA" d="M89.309,42.386c-1.104-1.115-2.442-1.42-4.016-1.42H46.814c-0.683-3-1.712-3.381-3.077-4.735
	c-2.739-2.737-6.033-4.235-9.887-4.235c-3.866,0-7.165,1.56-9.902,4.296c-1.366,1.355-2.395,1.673-3.078,4.673H5.69
	c-1.571,0-2.911,0.305-4.014,1.42C0.559,43.491,0,44.703,0,46.277c0,1.57,0.559,2.909,1.677,4.014
	c1.103,1.114,2.442,1.674,4.014,1.674h15.43c0.672,2,1.615,2.667,2.828,3.879c2.737,2.737,6.036,4.074,9.902,4.074
	c1.514,0,2.942-0.231,4.287-0.662c2.075-0.651,3.943-1.746,5.6-3.404c1.211-1.211,2.159-1.887,2.844-3.887h38.712
	c1.573,0,2.911-0.623,4.016-1.741c1.116-1.103,1.675-2.346,1.675-3.918C90.983,44.733,90.425,43.491,89.309,42.386z M39.504,49.065
	c-0.311,0.612-0.739,1.188-1.278,1.729c-0.022,0.022-0.053,0.054-0.088,0.089c-0.386,0.372-0.793,0.691-1.226,0.954
	c-0.995,0.589-2.115,0.883-3.35,0.883c-1.236,0-2.346-0.294-3.332-0.883c-0.466-0.276-0.911-0.624-1.331-1.043
	c-1.285-1.284-1.926-2.839-1.926-4.664c0-1.813,0.641-3.368,1.926-4.665c0.396-0.394,0.821-0.73,1.278-1.007
	c0.997-0.61,2.124-0.919,3.385-0.919c1.263,0,2.39,0.309,3.387,0.919c0.455,0.276,0.88,0.613,1.276,1.007
	c1.285,1.297,1.928,2.853,1.928,4.665C40.153,47.198,39.938,48.179,39.504,49.065z"/>
<path fill-rule="evenodd" clip-rule="evenodd" fill="#6394AA" d="M43.588,104.022c-0.55-1.011-0.726-1.914-0.525-2.705
	c0.181-0.683,0.636-1.222,1.368-1.622c0.639-0.382,1.376-0.582,2.205-0.602c0.832-0.009,1.529,0.151,2.091,0.48
	c0.539,0.321,1.27,1.197,2.191,2.63c0.781,1.24,1.406,2.403,1.877,3.483c0.372,0.823,0.687,1.112,0.946,0.871
	c0.262-0.24,0.332-0.904,0.209-1.997V82.026c0-0.058,0-0.118,0-0.179c0-0.828,0.172-1.546,0.513-2.147
	c0.13-0.241,0.293-0.467,0.482-0.676c0.311-0.332,0.664-0.581,1.064-0.75c0.46-0.192,0.976-0.277,1.548-0.254
	c0.479,0.018,0.908,0.098,1.275,0.237c0.493,0.181,0.902,0.462,1.232,0.843c0.144,0.169,0.267,0.346,0.377,0.523
	c0.341,0.613,0.51,1.359,0.51,2.24c0,0.068-0.011,0.162-0.03,0.27v12.364c0.02,0.41,0.116,0.619,0.286,0.63
	c0.2,0.021,0.548-0.235,1.038-0.766c0.328-0.35,0.579-0.577,0.749-0.676c0.304-0.16,0.697-0.217,1.188-0.165
	c0.981,0.111,1.754,0.37,2.315,0.78c0.588,0.441,0.953,0.872,1.096,1.293c0.13,0.418,0.365,0.718,0.704,0.887
	c0.339,0.158,0.848,0.018,1.517-0.424c0.685-0.458,1.524-0.69,2.523-0.69c0.984,0,1.71,0.437,2.179,1.306
	c0.471,0.845,1.118,1.534,1.938,2.075c0.843,0.532,1.699,0.715,2.566,0.555c1.015-0.129,1.89,0.063,2.632,0.573
	c0.66,0.45,1.073,1.045,1.232,1.789c0.118,0.598,0.211,1.105,0.269,1.515c0.05,0.531,0.05,1.025,0,1.49
	c-0.379,3.193-1.081,6.703-2.102,10.527c-1.253,4.725-2.516,7.807-3.787,9.24l-21.271,0.028c-2.293-5.75-5.396-11.147-9.313-16.192
	L43.588,104.022z"/>
</svg>
